Scandinavië.
Thriller
Regisseur: Kathrine Windfeld
Met : Alexandra Rapaport, Sven Ahlström, Suzanne Reuter, Ulf Friberg, Lars-Gunnar Aronsson, Annika Hallin

Those in power is een reeks van 3 miniseries, gebaseerd op de politieke thrillers 

"Kroonprinses", "Koningsmoord"en "Het offer" van de deense schrijfster Hanne-Vibeke Holst. Het laat ons niet alleen een unieke blik achter de schermen van een grote politieke partij zien, het vertelt ook het verhaal van drie bijzondere vrouwen die zich staande proberen te houden in een keiharde mannenwereld vol diplomatieke spelletjes, intriges en verraad.

Kroonprinses,
Charlotte - halverwege de 30 en moeder van 2 kinderen - staat op een kruispunt in haar leven.
Ze heeft net een succesvolle carrière opgegeven om met haar man naar Oeganda te verhuizen, waar hij voor zijn werk naar wordt overgeplaatst. Maar dan krijgt ze een aanbieding die ze niet kan afslaan; ze wordt gevraagd voor een belangrijke ministerspost in het kabinet. 
Charlotte moet zich nu staande zien te houdenin haar nieuwe functie, terwijl haar man thuis ook erg moet wennen aan zijn nieuwe rol.

Koningsmoord,
Koningsmoord is het spannende verhaal van Linda, die getrouwd is met de machtige en dominante Gert Jacobsson, minister van financiën.
De partij van Gert heeft zojuist de verkiezingen behoorlijk verloren, en Linda krijgt al snel in de gaten dat haar man van plan is om het partijleiderschap voor zichzelf op te eisen.

Offer,
Partijleider Elizabeth Meyer heeft er nooit een geheim van g:X-XML: emaakt dat ze van joodse afkomst is.
Maar nu wordt ze bedreigd door islamitische fundamentalisten. Haar problemen stapelen zich op als ze ook nog eens ontdekt dat ze de ziekte van alzheimer heeft.
Ze moet snel haar plan trekken om de partij in vertrouwde handen achter te laten, voor het te laat is.


Those in Power, Swedish Spoken
Those in Power is a mini series of three parts: The Crown, The Regicide and The Sacrifice. It is based on the bestselling trilogy by Hanne Vibeke Holst about women in politics. Political intrigue, the use (and abuse) of media, and what really goes on in the corridors of power. 
 
http://www.imdb.com/title/tt0802630

------------------------ Dutch Friends ------------------------
---------------------------------------------------------------
- Bezoek ook eens mijn vrienden op:  http://www.Film-Test.nl --
----- voor mijn Nederlandse Sync. ondertitels ---- en meer ----
------- http://www.Film-Test.nl ---- voor Films en meer -------
---------------------------------------------------------------

General:

Complete name                    : Those in power 1Kroonprinses.avi
Format                           : AVI
Format/Info                      : Audio Video Interleave
File size                        : 1.52 GiB
Duration                         : 1h 31mn
Overall bit rate                 : 2 382 Kbps

Video:

Format                           : MPEG-4 Visual
Format profile                   : Simple@L3
Format settings, BVOP            : No
Format settings, QPel            : No
Format settings, GMC             : No warppoints
Format settings, Matrix          : Default (H.263)
Codec ID                         : XVID
Codec ID/Hint                    : XviD
Duration                         : 1h 31mn
Bit rate                         : 1 923 Kbps
Width                            : 652 pixels
Height                           : 352 pixels
Display aspect ratio             : 1.852
Frame rate                       : 25.000 fps
Color space                      : YUV
Chroma subsampling               : 4:2:0
Bit depth                        : 8 bits
Scan type                        : Progressive
Compression mode                 : Lossy
Bits/(Pixel*Frame)               : 0.335
Stream size                      : 1.23 GiB (81%)
Writing library                  : XviD 1.1.2 (UTC 2006-11-01)

Audio:

Format                           : AC-3
Format/Info                      : Audio Coding 3
Mode extension                   : CM (complete main)
Codec ID                         : 2000
Duration                         : 1h 31mn
Bit rate mode                    : Constant
Bit rate                         : 448 Kbps
Channel(s)                       : 6 channels
Channel positions                : Front: L C R, Side: L R, LFE
Sampling rate                    : 48.0 KHz
Bit depth                        : 16 bits
Compression mode                 : Lossy
Stream size                      : 293 MiB (19%)
Alignment                        : Aligned on interleaves
Interleave, duration             : 32 ms (0.80 video frame)
Interleave, preload duration     : 832 ms